<mxfile host="Electron" modified="2023-12-01T08:47:24.685Z" agent="Mozilla/5.0 (Windows NT 10.0; Win64; x64) AppleWebKit/537.36 (KHTML, like Gecko) draw.io/22.1.2 Chrome/114.0.5735.289 Electron/25.9.4 Safari/537.36" etag="f6xzDdil-urNtgIBY2fy" version="22.1.2" type="device">
  <diagram name="Trang-1" id="5pH0P1uppTMKTm4gKnjM">
    <mxGraphModel dx="1036" dy="-1546" grid="1" gridSize="10" guides="1" tooltips="1" connect="1" arrows="1" fold="1" page="1" pageScale="1" pageWidth="850" pageHeight="1100" math="1" shadow="0">
      <root>
        <mxCell id="0" />
        <mxCell id="1" parent="0" />
        <mxCell id="RSQ57VMkS3th8piPBfaz-1" value="" style="edgeStyle=orthogonalEdgeStyle;rounded=0;orthogonalLoop=1;jettySize=auto;html=1;endArrow=none;endFill=0;" edge="1" parent="1" source="RSQ57VMkS3th8piPBfaz-3" target="RSQ57VMkS3th8piPBfaz-4">
          <mxGeometry relative="1" as="geometry" />
        </mxCell>
        <mxCell id="RSQ57VMkS3th8piPBfaz-2" value="" style="edgeStyle=orthogonalEdgeStyle;rounded=0;orthogonalLoop=1;jettySize=auto;html=1;endArrow=none;endFill=0;" edge="1" parent="1" source="RSQ57VMkS3th8piPBfaz-3">
          <mxGeometry relative="1" as="geometry">
            <mxPoint x="67" y="2700" as="targetPoint" />
          </mxGeometry>
        </mxCell>
        <mxCell id="RSQ57VMkS3th8piPBfaz-3" value="" style="pointerEvents=1;verticalLabelPosition=bottom;shadow=0;dashed=0;align=center;html=1;verticalAlign=top;shape=mxgraph.electrical.resistors.resistor_2;" vertex="1" parent="1">
          <mxGeometry x="90" y="2510" width="100" height="20" as="geometry" />
        </mxCell>
        <mxCell id="RSQ57VMkS3th8piPBfaz-4" value="" style="pointerEvents=1;verticalLabelPosition=bottom;shadow=0;dashed=0;align=center;html=1;verticalAlign=top;shape=mxgraph.electrical.resistors.resistor_2;" vertex="1" parent="1">
          <mxGeometry x="291.24" y="2510" width="100" height="20" as="geometry" />
        </mxCell>
        <mxCell id="RSQ57VMkS3th8piPBfaz-5" value="" style="edgeStyle=orthogonalEdgeStyle;rounded=0;orthogonalLoop=1;jettySize=auto;html=1;endArrow=none;endFill=0;" edge="1" parent="1" source="RSQ57VMkS3th8piPBfaz-7">
          <mxGeometry relative="1" as="geometry">
            <mxPoint x="249" y="2520" as="targetPoint" />
          </mxGeometry>
        </mxCell>
        <mxCell id="RSQ57VMkS3th8piPBfaz-6" value="" style="edgeStyle=orthogonalEdgeStyle;rounded=0;orthogonalLoop=1;jettySize=auto;html=1;endArrow=none;endFill=0;" edge="1" parent="1" source="RSQ57VMkS3th8piPBfaz-7">
          <mxGeometry relative="1" as="geometry">
            <mxPoint x="249" y="2700" as="targetPoint" />
          </mxGeometry>
        </mxCell>
        <mxCell id="RSQ57VMkS3th8piPBfaz-7" value="" style="pointerEvents=1;verticalLabelPosition=bottom;shadow=0;dashed=0;align=center;html=1;verticalAlign=top;shape=mxgraph.electrical.resistors.resistor_2;direction=south;" vertex="1" parent="1">
          <mxGeometry x="238.76000000000002" y="2570" width="20" height="100" as="geometry" />
        </mxCell>
        <mxCell id="RSQ57VMkS3th8piPBfaz-8" value="" style="edgeStyle=orthogonalEdgeStyle;rounded=0;orthogonalLoop=1;jettySize=auto;html=1;endArrow=none;endFill=0;" edge="1" parent="1" target="RSQ57VMkS3th8piPBfaz-9">
          <mxGeometry relative="1" as="geometry">
            <mxPoint x="67" y="2700" as="sourcePoint" />
          </mxGeometry>
        </mxCell>
        <mxCell id="RSQ57VMkS3th8piPBfaz-9" value="" style="shape=waypoint;sketch=0;size=6;pointerEvents=1;points=[];fillColor=default;resizable=0;rotatable=0;perimeter=centerPerimeter;snapToPoint=1;verticalAlign=top;shadow=0;dashed=0;" vertex="1" parent="1">
          <mxGeometry x="397.26" y="2690" width="20" height="20" as="geometry" />
        </mxCell>
        <mxCell id="RSQ57VMkS3th8piPBfaz-10" value="" style="edgeStyle=orthogonalEdgeStyle;rounded=0;orthogonalLoop=1;jettySize=auto;html=1;endArrow=none;endFill=0;" edge="1" parent="1" source="RSQ57VMkS3th8piPBfaz-11" target="RSQ57VMkS3th8piPBfaz-4">
          <mxGeometry relative="1" as="geometry" />
        </mxCell>
        <mxCell id="RSQ57VMkS3th8piPBfaz-11" value="" style="shape=waypoint;sketch=0;size=6;pointerEvents=1;points=[];fillColor=default;resizable=0;rotatable=0;perimeter=centerPerimeter;snapToPoint=1;verticalAlign=top;shadow=0;dashed=0;" vertex="1" parent="1">
          <mxGeometry x="398.74" y="2510" width="20" height="20" as="geometry" />
        </mxCell>
        <mxCell id="RSQ57VMkS3th8piPBfaz-12" value="$$R_{1}$$" style="text;html=1;strokeColor=none;fillColor=none;align=center;verticalAlign=middle;whiteSpace=wrap;rounded=0;" vertex="1" parent="1">
          <mxGeometry x="117.5" y="2480" width="60" height="30" as="geometry" />
        </mxCell>
        <mxCell id="RSQ57VMkS3th8piPBfaz-13" value="$$R_{2}$$" style="text;html=1;strokeColor=none;fillColor=none;align=center;verticalAlign=middle;whiteSpace=wrap;rounded=0;" vertex="1" parent="1">
          <mxGeometry x="314.74" y="2484" width="60" height="30" as="geometry" />
        </mxCell>
        <mxCell id="RSQ57VMkS3th8piPBfaz-14" value="$$R_{3}$$" style="text;html=1;strokeColor=none;fillColor=none;align=center;verticalAlign=middle;whiteSpace=wrap;rounded=0;" vertex="1" parent="1">
          <mxGeometry x="244" y="2603" width="60" height="30" as="geometry" />
        </mxCell>
        <mxCell id="RSQ57VMkS3th8piPBfaz-15" value="$$V_{AB}$$" style="text;html=1;align=center;verticalAlign=middle;whiteSpace=wrap;rounded=0;fontColor=#FF3333;" vertex="1" parent="1">
          <mxGeometry x="379.33" y="2598" width="60" height="30" as="geometry" />
        </mxCell>
        <mxCell id="RSQ57VMkS3th8piPBfaz-16" value="" style="endArrow=classic;html=1;rounded=0;fontColor=#de1b1b;fillColor=#a20025;strokeColor=#6F0000;" edge="1" parent="1">
          <mxGeometry width="50" height="50" relative="1" as="geometry">
            <mxPoint x="411" y="2589" as="sourcePoint" />
            <mxPoint x="410.57" y="2539" as="targetPoint" />
          </mxGeometry>
        </mxCell>
        <mxCell id="RSQ57VMkS3th8piPBfaz-17" value="" style="endArrow=classic;html=1;rounded=0;fontColor=#de1b1b;fillColor=#a20025;strokeColor=#6F0000;" edge="1" parent="1">
          <mxGeometry width="50" height="50" relative="1" as="geometry">
            <mxPoint x="411" y="2641" as="sourcePoint" />
            <mxPoint x="411" y="2687" as="targetPoint" />
          </mxGeometry>
        </mxCell>
        <mxCell id="RSQ57VMkS3th8piPBfaz-18" value="" style="endArrow=none;dashed=1;html=1;dashPattern=1 3;strokeWidth=2;rounded=0;fillColor=#d80073;strokeColor=#A50040;fontColor=#FF0000;" edge="1" parent="1">
          <mxGeometry width="50" height="50" relative="1" as="geometry">
            <mxPoint x="38.0719607843136" y="2605" as="sourcePoint" />
            <mxPoint x="103" y="2605" as="targetPoint" />
          </mxGeometry>
        </mxCell>
        <mxCell id="RSQ57VMkS3th8piPBfaz-19" value="" style="endArrow=none;dashed=1;html=1;dashPattern=1 3;strokeWidth=2;rounded=0;fillColor=#d80073;strokeColor=#A50040;fontColor=#FF0000;" edge="1" parent="1">
          <mxGeometry width="50" height="50" relative="1" as="geometry">
            <mxPoint x="44.55196078431361" y="2612.81" as="sourcePoint" />
            <mxPoint x="93.74" y="2613" as="targetPoint" />
          </mxGeometry>
        </mxCell>
        <mxCell id="RSQ57VMkS3th8piPBfaz-20" value="$$V_{1}$$" style="text;html=1;strokeColor=none;fillColor=none;align=center;verticalAlign=middle;whiteSpace=wrap;rounded=0;fontColor=#FF3333;" vertex="1" parent="1">
          <mxGeometry x="60" y="2580" width="60" height="30" as="geometry" />
        </mxCell>
        <mxCell id="RSQ57VMkS3th8piPBfaz-21" value="$$A$$&lt;br&gt;" style="text;html=1;strokeColor=none;fillColor=none;align=center;verticalAlign=middle;whiteSpace=wrap;rounded=0;" vertex="1" parent="1">
          <mxGeometry x="379.33" y="2490" width="60" height="30" as="geometry" />
        </mxCell>
        <mxCell id="RSQ57VMkS3th8piPBfaz-22" value="Ngắn mạch nguồn áp&lt;br&gt;" style="text;html=1;strokeColor=none;fillColor=none;align=center;verticalAlign=middle;whiteSpace=wrap;rounded=0;" vertex="1" parent="1">
          <mxGeometry x="107.5" y="2588" width="70" height="40" as="geometry" />
        </mxCell>
      </root>
    </mxGraphModel>
  </diagram>
</mxfile>
